HIERARCHY
ROOT Hips
{
  OFFSET 55.0542 96.745 60.0693
  CHANNELS 6 Xposition Yposition Zposition Zrotation Xrotation Yrotation
  JOINT spine
  {
    OFFSET 0 8.13249 0.467659
    CHANNELS 3 Zrotation Xrotation Yrotation
    JOINT spine1
    {
      OFFSET 0 10.3498 0
      CHANNELS 3 Zrotation Xrotation Yrotation
      JOINT spine2
      {
        OFFSET 0 9.91699 0
        CHANNELS 3 Zrotation Xrotation Yrotation
        JOINT Neck
        {
          OFFSET 0 25.461 1.2139
          CHANNELS 3 Zrotation Xrotation Yrotation
          JOINT Head
          {
            OFFSET 0 7.69245 0
            CHANNELS 3 Zrotation Xrotation Yrotation
            End Site
            {
              OFFSET 0 18.62 -6.14063
            }
          }
        }
        JOINT RightShoulder
        {
          OFFSET -4.17575 10.7096 -0.581445
          CHANNELS 3 Zrotation Xrotation Yrotation
          JOINT RightArm
          {
            OFFSET 0 14.0466 0
            CHANNELS 3 Zrotation Xrotation Yrotation
            JOINT RightArmRoll
            {
              OFFSET 0 7.09098 0
              CHANNELS 3 Zrotation Xrotation Yrotation
              JOINT RightForeArm
              {
                OFFSET 0 20.6535 0
                CHANNELS 3 Zrotation Xrotation Yrotation
                JOINT RightForeArmRoll
                {
                  OFFSET 0 7.95718 0
                  CHANNELS 3 Zrotation Xrotation Yrotation
                  JOINT RightHand
                  {
                    OFFSET 0 15.9683 0
                    CHANNELS 3 Zrotation Xrotation Yrotation
                    End Site
                    {
                      OFFSET 0 0 0
                    }
                  }
                }
              }
            }
          }
        }
        JOINT LeftShoulder
        {
          OFFSET 4.17575 10.7096 -0.581445
          CHANNELS 3 Zrotation Xrotation Yrotation
          JOINT LeftArm
          {
            OFFSET 0 14.0466 0
            CHANNELS 3 Zrotation Xrotation Yrotation
            JOINT LeftArmRoll
            {
              OFFSET 0 7.09098 0
              CHANNELS 3 Zrotation Xrotation Yrotation
              JOINT LeftForeArm
              {
                OFFSET 0 20.6535 0
                CHANNELS 3 Zrotation Xrotation Yrotation
                JOINT LeftForeArmRoll
                {
                  OFFSET 0 7.95718 0
                  CHANNELS 3 Zrotation Xrotation Yrotation
                  JOINT LeftHand
                  {
                    OFFSET 0 15.9683 0
                    CHANNELS 3 Zrotation Xrotation Yrotation
                    End Site
                    {
                      OFFSET 0 0 0
                    }
                  }
                }
              }
            }
          }
        }
      }
    }
  }
  JOINT RightUpLeg
  {
    OFFSET -7.20834 -1.32182 -1.10884
    CHANNELS 3 Zrotation Xrotation Yrotation
    JOINT RightUpLegRoll
    {
      OFFSET 0 18.7238 0
      CHANNELS 3 Zrotation Xrotation Yrotation
      JOINT RightLeg
      {
        OFFSET 0 -23.1866 0
        CHANNELS 3 Zrotation Xrotation Yrotation
        JOINT RightLegRoll
        {
          OFFSET 0 23.2624 0
          CHANNELS 3 Zrotation Xrotation Yrotation
          JOINT RightFoot
          {
            OFFSET 0 19.3621 0
            CHANNELS 3 Zrotation Xrotation Yrotation
            JOINT RightToeBase
            {
              OFFSET 0 16.1857 0
              CHANNELS 3 Zrotation Xrotation Yrotation
              End Site
              {
                OFFSET 0.00686052 7.83863 -0.903522
              }
            }
          }
        }
      }
    }
  }
  JOINT LeftUpLeg
  {
    OFFSET 7.20834 -1.32182 -1.10884
    CHANNELS 3 Zrotation Xrotation Yrotation
    JOINT LeftUpLegRoll
    {
      OFFSET 0 18.7239 0
      CHANNELS 3 Zrotation Xrotation Yrotation
      JOINT LeftLeg
      {
        OFFSET 0 23.1865 0
        CHANNELS 3 Zrotation Xrotation Yrotation
        JOINT LeftLegRoll
        {
          OFFSET 0 23.4775 0
          CHANNELS 3 Zrotation Xrotation Yrotation
          JOINT LeftFoot
          {
            OFFSET 0 19.147 0
            CHANNELS 3 Zrotation Xrotation Yrotation
            JOINT LeftToeBase
            {
              OFFSET 0 16.1857 0
              CHANNELS 3 Zrotation Xrotation Yrotation
              End Site
              {
                OFFSET -0.0307459 7.83862 -0.903522
              }
            }
          }
        }
      }
    }
  }
}
MOTION
Frames: 6
Frame Time: 0.00208333
52.5406 85.4838 38.712 -2.18102 17.4349 -0.515552 0.850233 1.53186 -0.229016 1.71874 7.06155 -0.594052 1.73011 8.70618 -0.62419 -2.24445 -23.2112 -3.94394 1.08354 2.66942 -3.80983 54.2155 -8.01621 -4.84384 148.598 50.7552 -25.9874 -2.64703e-005 1.4433e-006 -4.49477e-006 8.63491 0.0700924 -1.42977 -1.57519e-006 -8.2476e-007 -3.1315 8.02891 -4.95144 0.69771 -59.1611 -6.93918 4.31829 -131.571 47.154 32.2221 -2.05986e-006 4.06688e-007 3.82021e-006 -14.8078 0.117732 0.0306381 -1.93441e-006 -6.68408e-006 3.01291 -8.02897 -4.95157 -0.697733 173.551 56.4627 6.0574 180 1.52578e-005 179.344 172.703 48.4964 -178.141 -4.36432e-006 1.22608e-006 0.583052 -22.9368 72.3812 24.0795 8.13649 25.2327 -3.48768 -157.793 55.6948 -18.4476 -1.07169e-005 -4.64205e-006 -0.567214 -6.40097 -50.572 -1.90764 2.449e-006 -1.62769e-006 -0.737594 22.3219 73.2542 -24.9963 -8.13668 25.2452 3.47393 
52.5277 85.5783 38.8006 -2.17739 17.3319 -0.504343 0.846028 1.5224 -0.224713 1.71015 7.04273 -0.584262 1.72137 8.68737 -0.614234 -2.19831 -23.1739 -3.94003 1.03883 2.69911 -3.81378 54.254 -8.0105 -4.84108 148.465 50.7157 -25.8952 -2.64703e-005 1.4433e-006 -4.49477e-006 8.67769 0.0699631 -1.4312 -1.57519e-006 -8.2476e-007 -3.13127 8.02891 -4.95144 0.69771 -59.1713 -6.93712 4.31743 -131.632 47.1246 32.2498 -2.05986e-006 4.06688e-007 3.82021e-006 -14.8183 0.12092 0.0436427 -1.93441e-006 -6.68408e-006 3.01361 -8.02897 -4.95157 -0.697733 173.587 56.1871 6.01884 180 1.52578e-005 179.344 172.716 48.299 -178.158 -4.36432e-006 1.22608e-006 0.581344 -22.916 72.3584 24.0508 8.13649 25.2327 -3.48768 -157.965 55.4433 -18.2775 -1.07169e-005 -4.64205e-006 -0.57085 -6.38472 -50.3855 -1.89187 2.449e-006 -1.62769e-006 -0.736749 22.3231 73.2369 -24.9765 -8.13668 25.2452 3.47393 
52.529 85.6528 38.8792 -2.1734 17.2288 -0.492929 0.8419 1.5129 -0.220437 1.70171 7.02383 -0.574634 1.71278 8.66848 -0.604442 -2.15504 -23.139 -3.93699 0.995157 2.73288 -3.8183 54.293 -8.00427 -4.83799 148.327 50.6746 -25.801 -2.64703e-005 1.4433e-006 -4.49477e-006 8.72245 0.0698544 -1.43217 -1.57519e-006 -8.2476e-007 -3.13099 8.02891 -4.95144 0.69771 -59.1845 -6.93569 4.31709 -131.688 47.0945 32.2745 -2.05986e-006 4.06688e-007 3.82021e-006 -14.8287 0.123452 0.0557967 -1.93441e-006 -6.68408e-006 3.01429 -8.02897 -4.95157 -0.697733 173.625 55.9126 5.97849 180 1.52578e-005 179.343 172.733 48.104 -178.175 -4.36432e-006 1.22608e-006 0.579601 -22.8947 72.3368 24.0236 8.13649 25.2327 -3.48768 -158.137 55.1924 -18.1065 -1.07169e-005 -4.64205e-006 -0.574286 -6.36742 -50.2 -1.8759 2.449e-006 -1.62769e-006 -0.735749 22.3237 73.2203 -24.9574 -8.13668 25.2452 3.47393 
52.5283 85.7397 38.9549 -2.16904 17.1257 -0.481257 0.837881 1.50338 -0.216207 1.69347 7.0049 -0.565234 1.7044 8.64955 -0.594883 -2.11526 -23.107 -3.93502 0.952802 2.77143 -3.82354 54.3325 -7.99749 -4.83456 148.185 50.6319 -25.7039 -2.64703e-005 1.4433e-006 -4.49477e-006 8.7681 0.0697679 -1.43269 -1.57519e-006 -8.2476e-007 -3.13068 8.02891 -4.95144 0.69771 -59.2011 -6.93495 4.31731 -131.738 47.0638 32.2956 -2.05986e-006 4.06688e-007 3.82021e-006 -14.839 0.123546 0.0666436 -1.93441e-006 -6.68408e-006 3.01492 -8.02897 -4.95157 -0.697733 173.663 55.6396 5.93568 180 1.52578e-005 179.343 172.752 47.9122 -178.193 -4.36431e-006 1.22608e-006 0.577813 -22.8732 72.317 23.9984 8.13649 25.2327 -3.48768 -158.309 54.9426 -17.9334 -1.07169e-005 -4.64205e-006 -0.577458 -6.34856 -50.0162 -1.85958 2.449e-006 -1.62769e-006 -0.734552 22.3235 73.2046 -24.9394 -8.13668 25.2452 3.47393 
52.5211 85.8154 39.0364 -2.16432 17.0222 -0.469274 0.834008 1.49388 -0.212047 1.68551 6.98597 -0.556132 1.69629 8.63063 -0.585627 -2.07957 -23.0785 -3.93433 0.912054 2.81549 -3.82963 54.3725 -7.99012 -4.83076 148.038 50.5879 -25.6033 -2.64703e-005 1.4433e-006 -4.49477e-006 8.81359 0.0697051 -1.43274 -1.57519e-006 -8.2476e-007 -3.13035 8.02891 -4.95144 0.69771 -59.2219 -6.93496 4.31815 -131.782 47.0328 32.3129 -2.05986e-006 4.06688e-007 3.82021e-006 -14.8493 0.119423 0.0757271 -1.93441e-006 -6.68408e-006 3.01551 -8.02897 -4.95157 -0.697733 173.704 55.3681 5.88961 180 1.52578e-005 179.342 172.775 47.7242 -178.212 -4.36432e-006 1.22608e-006 0.575966 -22.8515 72.2993 23.9756 8.13649 25.2327 -3.48768 -158.481 54.6939 -17.7572 -1.07169e-005 -4.64205e-006 -0.580304 -6.32762 -49.8345 -1.84276 2.449e-006 -1.62769e-006 -0.733118 22.3225 73.1902 -24.9229 -8.13668 25.2452 3.47393 
52.5245 85.9605 39.0884 -2.15921 16.9185 -0.456926 0.830314 1.4844 -0.207979 1.67787 6.96711 -0.547396 1.68853 8.61177 -0.576742 -2.04859 -23.0539 -3.93509 0.873204 2.86578 -3.83671 54.4131 -7.98215 -4.82658 147.888 50.5428 -25.4986 -2.64703e-005 1.4433e-006 -4.49477e-006 8.85785 0.0696676 -1.43232 -1.57519e-006 -8.2476e-007 -3.13001 8.02891 -4.95144 0.69771 -59.2473 -6.93576 4.31966 -131.818 47.0017 32.3258 -2.05986e-006 4.06688e-007 3.82021e-006 -14.8595 0.109302 0.0825907 -1.93441e-006 -6.68408e-006 3.01602 -8.02897 -4.95157 -0.697733 173.746 55.0985 5.83961 180 1.52578e-005 179.342 172.802 47.5408 -178.233 -4.36431e-006 1.22608e-006 0.574051 -22.8297 72.2843 23.9559 8.13649 25.2327 -3.48768 -158.654 54.4467 -17.5767 -1.07169e-005 -4.64205e-006 -0.582761 -6.30409 -49.6555 -1.82529 2.449e-006 -1.62769e-006 -0.731405 22.3204 73.1774 -24.9082 -8.13668 25.2452 3.47393 
